IKResults
version=1
nRows=11
nColumns=40
inDegrees=yes

Units are S.I. units (second, meters, Newtons, ...)
Angles are in degrees.

endheader
time	pelvis_tilt	pelvis_list	pelvis_rotation	pelvis_tx	pelvis_ty	pelvis_tz	hip_flexion_r	hip_adduction_r	hip_rotation_r	knee_angle_r	knee_angle_r_beta	ankle_angle_r	subtalar_angle_r	mtp_angle_r	hip_flexion_l	hip_adduction_l	hip_rotation_l	knee_angle_l	knee_angle_l_beta	ankle_angle_l	subtalar_angle_l	mtp_angle_l	lumbar_extension	lumbar_bending	lumbar_rotation	arm_flex_r	arm_add_r	arm_rot_r	elbow_flex_r	pro_sup_r	wrist_flex_r	wrist_dev_r	arm_flex_l	arm_add_l	arm_rot_l	elbow_flex_l	pro_sup_l	wrist_flex_l	wrist_dev_l
      2.31000000	     17.47253983	      1.40979200	      0.25658885	      0.71348795	      0.95812631	      1.47913911	    -21.50418933	      1.12273158	    -15.94781814	    -12.18429041	     -0.21265598	     10.70713805	      6.64044251	     -5.08331737	     -3.43897348	      1.98928525	     17.33214203	    -18.28131139	     -0.31906908	      5.79850196	      1.13733087	     -6.86006305	    -24.46253160	     -1.99241987	      1.98111289	      4.39628226	    -11.96076864	      3.06773074	     35.24532545	     89.95437384	      0.00000000	      0.00000000	     -0.20262374	      8.82489926	     14.40267190	     18.26973486	     89.95437384	      0.00000000	      0.00000000
      2.32000000	     17.31999569	      1.47931913	      0.32766107	      0.71881815	      0.95728591	      1.47906346	    -21.64367676	      1.09790564	    -15.99884991	    -12.27641897	     -0.21426393	     10.94278538	      6.45913741	     -5.08039967	     -2.62199327	      1.88299931	     17.65433457	    -17.52417309	     -0.30585452	      5.76789710	      0.59358587	     -6.86967668	    -24.32920395	     -2.04973218	      1.90358919	      4.55729810	    -12.00192546	      2.98712099	     35.74655367	     89.95437384	      0.00000000	      0.00000000	     -0.65233415	      8.88052829	     14.50924994	     18.17311348	     89.95437384	      0.00000000	      0.00000000
      2.33000000	     17.73682593	      1.99108936	     -0.14466361	      0.72492359	      0.95729157	      1.47919429	    -22.42157839	      0.38004709	    -15.71914659	    -12.46050077	     -0.21747676	     11.34235680	      6.27383737	     -5.20973500	     -3.00616634	      1.25096156	     18.99459523	    -15.85692902	     -0.27675562	      4.60530453	     -2.80056403	     -7.43456685	    -24.75438153	     -2.74766159	      2.16455021	      4.53032110	    -12.13296503	      2.97479143	     36.49916625	     89.95437384	      0.00000000	      0.00000000	     -1.06549481	      8.79601599	     15.30391693	     18.05629127	     89.95437384	      0.00000000	      0.00000000
      2.34000000	     17.78489087	      2.05891481	     -0.29520961	      0.73080924	      0.95655785	      1.47930103	    -22.82907554	      0.28560205	    -15.46409115	    -12.51462238	     -0.21842137	     11.56572017	      6.13163297	     -5.43848780	     -2.40286288	      1.39894162	     20.71774639	    -15.48083500	     -0.27019154	      3.96526134	     -6.10240539	     -8.44148776	    -24.78052379	     -2.89444838	      2.29121649	      4.55973636	    -12.23617205	      3.02723631	     37.09131619	     89.95437384	      0.00000000	      0.00000000	     -1.53335398	      8.79226965	     15.60424835	     17.96934487	     89.95437384	      0.00000000	      0.00000000
      2.35000000	     17.63019799	      2.12737692	     -0.21444492	      0.73609366	      0.95562085	      1.47916330	    -22.93573161	      0.25433188	    -15.46966441	    -12.68235308	     -0.22134882	     11.70392440	      6.03096587	     -5.42436423	     -1.52610115	      1.30838336	     20.83964910	    -15.16520927	     -0.26468283	      4.04339432	     -6.23016303	     -8.41380813	    -24.68305483	     -2.96833416	      2.20518319	      4.75106107	    -12.24263303	      2.96230743	     37.44908258	     89.95437384	      0.00000000	      0.00000000	     -1.89592903	      8.84226983	     15.59349616	     17.83707635	     89.95437384	      0.00000000	      0.00000000
      2.36000000	     17.54334583	      2.26591805	     -0.10383109	      0.74162322	      0.95475285	      1.47875780	    -23.15473154	      0.16388413	    -15.47931329	    -12.82896429	     -0.22390767	     12.00060437	      5.88501811	     -5.43509188	     -0.84719262	      1.10278387	     20.92845353	    -14.68945794	     -0.25637941	      4.03107207	     -6.60398068	     -8.43452430	    -24.63453350	     -3.09337162	      2.08043532	      4.83507243	    -12.26858611	      2.85371180	     37.90429783	     89.95437384	      0.00000000	      0.00000000	     -2.22805900	      8.85842923	     15.65371568	     17.66943147	     89.95437384	      0.00000000	      0.00000000
      2.37000000	     17.96345643	      2.83224968	     -0.42927268	      0.74790175	      0.95466338	      1.47846230	    -24.02787255	     -0.53928057	    -15.23970364	    -12.86233206	     -0.22449004	     12.36660387	      5.42014305	     -5.52895014	     -1.23687317	      0.33415766	     21.69026188	    -13.39648664	     -0.23381280	      2.82028312	     -8.42101277	     -8.88437542	    -25.08194697	     -3.78389332	      2.20878223	      4.67833360	    -12.31794423	      2.60098091	     38.67235143	     89.95437384	      0.00000000	      0.00000000	     -2.50849474	      8.79284394	     16.31428048	     17.49857373	     89.95437384	      0.00000000	      0.00000000
      2.38000000	     18.00939685	      2.97957976	     -0.47217246	      0.75373679	      0.95395184	      1.47827432	    -24.37214905	     -0.70797330	    -15.14278930	    -13.07235981	     -0.22815572	     12.59303271	      5.16079671	     -5.57396356	     -0.79381981	      0.18473968	     22.21487351	    -13.05669033	     -0.22788224	      2.38272975	     -9.01518705	     -9.12754323	    -25.15583510	     -3.98875739	      2.24487327	      4.69439605	    -12.34959332	      2.55697719	     39.11060294	     89.95437384	      0.00000000	      0.00000000	     -2.78370748	      8.81470188	     16.38643713	     17.32401582	     89.95437384	      0.00000000	      0.00000000
      2.39000000	     18.01609154	      3.13112660	     -0.43134341	      0.75962557	      0.95317037	      1.47778239	    -24.73211562	     -0.84919956	    -15.05553233	    -13.21169502	     -0.23058758	     12.91306645	      4.97077460	     -5.57954403	     -0.30495976	     -0.00472873	     22.43212956	    -12.84283807	     -0.22414981	      2.26568298	     -9.10397197	     -9.13612342	    -25.19961190	     -4.14557980	      2.28207534	      4.59031368	    -12.42783619	      2.39197672	     39.65405524	     89.95437384	      0.00000000	      0.00000000	     -2.98540130	      8.78587418	     16.50683361	     17.13869927	     89.95437384	      0.00000000	      0.00000000
      2.40000000	     17.86788344	      3.13582736	     -0.35962830	      0.76538347	      0.95219535	      1.47730755	    -24.86568001	     -0.84875982	    -15.08312786	    -13.41442566	     -0.23412590	     13.09836643	      4.79240058	     -5.54939549	      0.34748337	     -0.01934643	     22.64474887	    -12.71498637	     -0.22191838	      2.25185709	     -8.90348409	     -9.03231621	    -25.08215523	     -4.15816428	      2.26562396	      4.65973582	    -12.45179825	      2.32828989	     39.88053759	     89.95437384	      0.00000000	      0.00000000	     -3.24827627	      8.77115026	     16.47664303	     17.00936266	     89.95437384	      0.00000000	      0.00000000
      2.41000000	     17.79920377	      3.16911182	     -0.30872741	      0.77134111	      0.95129239	      1.47688933	    -25.08708040	     -0.88732946	    -15.02931258	    -13.64018701	     -0.23806617	     13.22133513	      4.63707952	     -5.52132595	      0.86529737	     -0.04961110	     22.80150681	    -12.62493221	     -0.22034663	      2.25289489	     -8.73745169	     -8.94241597	    -25.01296550	     -4.21214457	      2.22255745	      4.65586950	    -12.42219329	      2.28606820	     40.15195365	     89.95437384	      0.00000000	      0.00000000	     -3.54658855	      8.77313065	     16.47781858	     16.92209570	     89.95437384	      0.00000000	      0.00000000
